<svg width="36" height="37" viewBox="0 0 36 37" fill="none" xmlns="http://www.w3.org/2000/svg">
<rect y="0.5" width="36" height="36" rx="8" fill="#008745"/>
<path d="M23.8118 21.8469L23.4703 20.2234L23.1288 21.8469C23.0164 22.3809 22.7512 22.8707 22.3653 23.2566C21.9794 23.6425 21.4896 23.9078 20.9555 24.0201L19.332 24.3617L20.9555 24.7032C21.4896 24.8155 21.9794 25.0808 22.3653 25.4667C22.7512 25.8526 23.0164 26.3424 23.1288 26.8764L23.4703 28.4999L23.8118 26.8764C23.9242 26.3424 24.1894 25.8526 24.5753 25.4667C24.9612 25.0808 25.451 24.8155 25.9851 24.7032L27.6086 24.3617L25.9851 24.0201C25.451 23.9078 24.9612 23.6425 24.5753 23.2566C24.1894 22.8707 23.9242 22.3809 23.8118 21.8469Z" fill="white"/>
<path d="M17.3268 25.0608C12.8989 25.0608 8.39147 20.9067 8.39148 16.6874C8.39148 15.6939 8.39148 14.6687 8.39148 13.7415C8.39148 11.8912 9.89147 10.3918 11.7418 10.3918H17.3268M17.3268 10.3918H22.9118C24.7622 10.3918 26.2621 11.8911 26.2621 13.7415C26.2621 14.6687 26.2621 15.6939 26.2621 16.6874C26.2621 17.4955 26.1212 18.2796 25.8647 19.0229M17.3268 10.3918V8.5" stroke="white" stroke-width="1.5" stroke-linecap="round"/>
<ellipse cx="13.838" cy="16.7811" rx="1.39596" ry="1.39596" fill="white"/>
<ellipse cx="20.8143" cy="16.7811" rx="1.39596" ry="1.39596" fill="white"/>
</svg>
