<svg width="20" height="21" viewBox="0 0 20 21" fill="none" xmlns="http://www.w3.org/2000/svg">
<rect y="0.5" width="20" height="20" rx="4" fill="#F2F4F6"/>
<path d="M13.6667 9.83333H10.3333M13.6667 12.5H10.3333M13.6667 7.16667H10.3333M8 4.5L8 16.5M7.2 4.5H12.8C13.9201 4.5 14.4802 4.5 14.908 4.71799C15.2843 4.90973 15.5903 5.21569 15.782 5.59202C16 6.01984 16 6.5799 16 7.7V13.3C16 14.4201 16 14.9802 15.782 15.408C15.5903 15.7843 15.2843 16.0903 14.908 16.282C14.4802 16.5 13.9201 16.5 12.8 16.5H7.2C6.07989 16.5 5.51984 16.5 5.09202 16.282C4.71569 16.0903 4.40973 15.7843 4.21799 15.408C4 14.9802 4 14.4201 4 13.3V7.7C4 6.57989 4 6.01984 4.21799 5.59202C4.40973 5.21569 4.71569 4.90973 5.09202 4.71799C5.51984 4.5 6.0799 4.5 7.2 4.5Z" stroke="#212121" stroke-linecap="round" stroke-linejoin="round"/>
</svg>
