<svg width="16" height="17" viewBox="0 0 16 17" fill="none" xmlns="http://www.w3.org/2000/svg">
<path d="M10.6667 5.16667C10.6667 4.54669 10.6667 4.2367 10.5986 3.98236C10.4136 3.29218 9.87453 2.75308 9.18435 2.56815C8.93001 2.5 8.62002 2.5 8.00004 2.5C7.38006 2.5 7.07007 2.5 6.81574 2.56815C6.12555 2.75308 5.58646 3.29218 5.40152 3.98236C5.33337 4.2367 5.33337 4.54669 5.33337 5.16667M3.46671 14.5H12.5334C13.2801 14.5 13.6535 14.5 13.9387 14.3547C14.1896 14.2268 14.3936 14.0229 14.5214 13.772C14.6667 13.4868 14.6667 13.1134 14.6667 12.3667V7.3C14.6667 6.55326 14.6667 6.1799 14.5214 5.89468C14.3936 5.6438 14.1896 5.43982 13.9387 5.31199C13.6535 5.16667 13.2801 5.16667 12.5334 5.16667H3.46671C2.71997 5.16667 2.3466 5.16667 2.06139 5.31199C1.8105 5.43982 1.60653 5.6438 1.4787 5.89468C1.33337 6.1799 1.33337 6.55326 1.33337 7.3V12.3667C1.33337 13.1134 1.33337 13.4868 1.4787 13.772C1.60653 14.0229 1.8105 14.2268 2.06139 14.3547C2.3466 14.5 2.71997 14.5 3.46671 14.5Z" stroke="#646464" stroke-linecap="round" stroke-linejoin="round"/>
</svg>
