<svg width="16" height="17" viewBox="0 0 16 17" fill="none" xmlns="http://www.w3.org/2000/svg">
<path d="M8.66665 7.83333H11.8666C12.6134 7.83333 12.9868 7.83333 13.272 7.97866C13.5229 8.10649 13.7268 8.31046 13.8547 8.56135C14 8.84656 14 9.21993 14 9.96667V14.5M8.66665 14.5V4.63333C8.66665 3.8866 8.66665 3.51323 8.52132 3.22801C8.39349 2.97713 8.18952 2.77316 7.93863 2.64532C7.65342 2.5 7.28005 2.5 6.53331 2.5H4.13331C3.38658 2.5 3.01321 2.5 2.72799 2.64532C2.47711 2.77316 2.27314 2.97713 2.1453 3.22801C1.99998 3.51323 1.99998 3.8866 1.99998 4.63333V14.5M14.6666 14.5H1.33331M4.33331 5.16667H6.33331M4.33331 7.83333H6.33331M4.33331 10.5H6.33331" stroke="#979797" stroke-linecap="round" stroke-linejoin="round"/>
</svg>
