<svg width="20" height="21" viewBox="0 0 20 21" fill="none" xmlns="http://www.w3.org/2000/svg">
<rect y="0.5" width="20" height="20" rx="4" fill="#F2F4F6"/>
<path d="M3.61342 10.9754C3.52262 10.8317 3.47723 10.7598 3.45182 10.6489C3.43273 10.5656 3.43273 10.4343 3.45182 10.351C3.47723 10.2402 3.52262 10.1683 3.61341 10.0245C4.36369 8.83654 6.59693 5.83331 10.0003 5.83331C13.4036 5.83331 15.6369 8.83654 16.3871 10.0245C16.4779 10.1683 16.5233 10.2402 16.5487 10.351C16.5678 10.4343 16.5678 10.5656 16.5487 10.6489C16.5233 10.7598 16.4779 10.8317 16.3871 10.9754C15.6369 12.1634 13.4036 15.1666 10.0003 15.1666C6.59693 15.1666 4.36369 12.1634 3.61342 10.9754Z" stroke="#212121" stroke-linecap="round" stroke-linejoin="round"/>
<path d="M10.0003 12.5C11.1048 12.5 12.0003 11.6045 12.0003 10.5C12.0003 9.39541 11.1048 8.49998 10.0003 8.49998C8.8957 8.49998 8.00027 9.39541 8.00027 10.5C8.00027 11.6045 8.8957 12.5 10.0003 12.5Z" stroke="#212121" stroke-linecap="round" stroke-linejoin="round"/>
</svg>
