<svg width="36" height="37" viewBox="0 0 36 37" fill="none" xmlns="http://www.w3.org/2000/svg">
<rect y="0.5" width="36" height="36" rx="8" fill="#F7EDFF"/>
<path d="M23.5 17.5H18.5M23.5 21.5H18.5M23.5 13.5H18.5M15 9.5L15 27.5M13.8 9.5H22.2C23.8802 9.5 24.7202 9.5 25.362 9.82698C25.9265 10.1146 26.3854 10.5735 26.673 11.138C27 11.7798 27 12.6198 27 14.3V22.7C27 24.3802 27 25.2202 26.673 25.862C26.3854 26.4265 25.9265 26.8854 25.362 27.173C24.7202 27.5 23.8802 27.5 22.2 27.5H13.8C12.1198 27.5 11.2798 27.5 10.638 27.173C10.0735 26.8854 9.6146 26.4265 9.32698 25.862C9 25.2202 9 24.3802 9 22.7V14.3C9 12.6198 9 11.7798 9.32698 11.138C9.6146 10.5735 10.0735 10.1146 10.638 9.82698C11.2798 9.5 12.1198 9.5 13.8 9.5Z" stroke="#7955A3" stroke-width="1.5" stroke-linecap="round" stroke-linejoin="round"/>
</svg>
