<svg width="20" height="21" viewBox="0 0 20 21" fill="none" xmlns="http://www.w3.org/2000/svg">
<path d="M7.49996 18V11.8333C7.49996 11.3666 7.49996 11.1333 7.59079 10.955C7.67068 10.7982 7.79817 10.6707 7.95497 10.5908C8.13323 10.5 8.36659 10.5 8.8333 10.5H11.1666C11.6333 10.5 11.8667 10.5 12.045 10.5908C12.2018 10.6707 12.3292 10.7982 12.4091 10.955C12.5 11.1333 12.5 11.3666 12.5 11.8333V18M1.66663 8.41667L9.19996 2.76667C9.48684 2.5515 9.63029 2.44392 9.78782 2.40245C9.92688 2.36585 10.073 2.36585 10.2121 2.40245C10.3696 2.44392 10.5131 2.55151 10.8 2.76667L18.3333 8.41667M3.3333 7.16667V15.3333C3.3333 16.2668 3.3333 16.7335 3.51495 17.09C3.67474 17.4036 3.92971 17.6586 4.24331 17.8183C4.59983 18 5.06654 18 5.99996 18H14C14.9334 18 15.4001 18 15.7566 17.8183C16.0702 17.6586 16.3252 17.4036 16.485 17.09C16.6666 16.7335 16.6666 16.2668 16.6666 15.3333V7.16667L11.6 3.36667C11.0262 2.93634 10.7393 2.72118 10.4242 2.63824C10.1461 2.56503 9.8538 2.56503 9.57568 2.63824C9.26061 2.72118 8.97373 2.93634 8.39996 3.36667L3.3333 7.16667Z" stroke="#212121" stroke-linecap="round" stroke-linejoin="round"/>
</svg>
