<svg width="32" height="33" viewBox="0 0 32 33" fill="none" xmlns="http://www.w3.org/2000/svg">
<path d="M23.5 14L23.5 9.00001M23.5 9.00001H18.5M23.5 9.00001L16 16.5M14.3333 9H12.5C11.0999 9 10.3998 9 9.86502 9.27248C9.39462 9.51217 9.01217 9.89462 8.77248 10.365C8.5 10.8998 8.5 11.5999 8.5 13V20C8.5 21.4001 8.5 22.1002 8.77248 22.635C9.01217 23.1054 9.39462 23.4878 9.86502 23.7275C10.3998 24 11.0999 24 12.5 24H19.5C20.9001 24 21.6002 24 22.135 23.7275C22.6054 23.4878 22.9878 23.1054 23.2275 22.635C23.5 22.1002 23.5 21.4001 23.5 20V18.1667" stroke="#979797" stroke-width="1.2" stroke-linecap="round" stroke-linejoin="round"/>
</svg>
