<svg width="16" height="17" viewBox="0 0 16 17" fill="none" xmlns="http://www.w3.org/2000/svg">
<path d="M14 8.5C14 11.8137 11.3137 14.5 8 14.5C7.2019 14.5 6.4402 14.3442 5.74366 14.0613C5.61035 14.0072 5.54369 13.9801 5.48981 13.968C5.43711 13.9562 5.3981 13.9519 5.34409 13.9519C5.28887 13.9519 5.22872 13.9619 5.10843 13.9819L2.73651 14.3772C2.48812 14.4186 2.36393 14.4393 2.27412 14.4008C2.19552 14.3671 2.13289 14.3045 2.09917 14.2259C2.06065 14.1361 2.08135 14.0119 2.12275 13.7635L2.51807 11.3916C2.53812 11.2713 2.54814 11.2111 2.54814 11.1559C2.54813 11.1019 2.54381 11.0629 2.532 11.0102C2.51992 10.9563 2.49285 10.8897 2.43871 10.7563C2.15582 10.0598 2 9.2981 2 8.5C2 5.18629 4.68629 2.5 8 2.5C11.3137 2.5 14 5.18629 14 8.5Z" stroke="#979797" stroke-width="0.8" stroke-linecap="round" stroke-linejoin="round"/>
</svg>
