<svg width="32" height="33" viewBox="0 0 32 33" fill="none" xmlns="http://www.w3.org/2000/svg">
<path d="M13.7951 24C14.3828 24.5186 15.1546 24.8333 16 24.8333C16.8454 24.8333 17.6172 24.5186 18.2048 24M21 13.1666C21 11.8405 20.4732 10.5688 19.5355 9.63109C18.5978 8.69341 17.3261 8.16663 16 8.16663C14.6739 8.16663 13.4021 8.69341 12.4645 9.63109C11.5268 10.5688 11 11.8405 11 13.1666C11 15.7418 10.3504 17.5049 9.62472 18.6711C9.0126 19.6549 8.70654 20.1467 8.71777 20.2839C8.73019 20.4359 8.76238 20.4938 8.88481 20.5846C8.99538 20.6666 9.49382 20.6666 10.4907 20.6666H21.5093C22.5062 20.6666 23.0046 20.6666 23.1152 20.5846C23.2376 20.4938 23.2698 20.4359 23.2822 20.2839C23.2934 20.1467 22.9874 19.6549 22.3753 18.6711C21.6496 17.5049 21 15.7418 21 13.1666Z" stroke="#212121" stroke-width="1.25" stroke-linecap="round" stroke-linejoin="round"/>
</svg>
