<svg width="21" height="21" viewBox="0 0 21 21" fill="none" xmlns="http://www.w3.org/2000/svg">
<rect x="0.5" y="0.5" width="20" height="20" rx="4" fill="#F2F4F6"/>
<path d="M15.1666 9.16669V5.16669M13.1666 7.16669H17.1666M13.1666 16.5V15.7C13.1666 14.5799 13.1666 14.0199 12.9487 13.592C12.7569 13.2157 12.451 12.9098 12.0746 12.718C11.6468 12.5 11.0868 12.5 9.96665 12.5H7.03331C5.91321 12.5 5.35316 12.5 4.92533 12.718C4.54901 12.9098 4.24305 13.2157 4.0513 13.592C3.83331 14.0199 3.83331 14.5799 3.83331 15.7V16.5M10.8333 7.50002C10.8333 8.78868 9.78864 9.83335 8.49998 9.83335C7.21132 9.83335 6.16665 8.78868 6.16665 7.50002C6.16665 6.21136 7.21132 5.16669 8.49998 5.16669C9.78864 5.16669 10.8333 6.21136 10.8333 7.50002Z" stroke="#212121" stroke-linecap="round" stroke-linejoin="round"/>
</svg>
