<svg width="20" height="21" viewBox="0 0 20 21" fill="none" xmlns="http://www.w3.org/2000/svg">
<path d="M17.5 8L12.1262 11.8384C11.963 11.955 11.8813 12.0133 11.7939 12.0309C11.7168 12.0464 11.637 12.0398 11.5635 12.0119C11.4801 11.9801 11.4092 11.9092 11.2673 11.7673L8.73267 9.23267C8.5908 9.0908 8.51986 9.01986 8.43652 8.98814C8.36305 8.96017 8.28317 8.95356 8.2061 8.96907C8.11868 8.98666 8.03704 9.04497 7.87378 9.16159L2.5 13M6.5 18H13.5C14.9001 18 15.6002 18 16.135 17.7275C16.6054 17.4878 16.9878 17.1054 17.2275 16.635C17.5 16.1002 17.5 15.4001 17.5 14V7C17.5 5.59987 17.5 4.8998 17.2275 4.36502C16.9878 3.89462 16.6054 3.51217 16.135 3.27248C15.6002 3 14.9001 3 13.5 3H6.5C5.09987 3 4.3998 3 3.86502 3.27248C3.39462 3.51217 3.01217 3.89462 2.77248 4.36502C2.5 4.8998 2.5 5.59987 2.5 7V14C2.5 15.4001 2.5 16.1002 2.77248 16.635C3.01217 17.1054 3.39462 17.4878 3.86502 17.7275C4.3998 18 5.09987 18 6.5 18Z" stroke="#979797" stroke-width="1.2" stroke-linecap="round" stroke-linejoin="round"/>
</svg>
