<svg width="32" height="33" viewBox="0 0 32 33" fill="none" xmlns="http://www.w3.org/2000/svg">
<path d="M20.882 19.4455L20.6225 18.212L20.363 19.4455C20.2777 19.8512 20.0761 20.2233 19.783 20.5165C19.4898 20.8097 19.1177 21.0112 18.7119 21.0966L17.4785 21.356L18.7119 21.6155C19.1177 21.7008 19.4898 21.9024 19.783 22.1956C20.0761 22.4887 20.2777 22.8609 20.363 23.2666L20.6225 24.5L20.882 23.2666C20.9673 22.8609 21.1689 22.4887 21.462 22.1956C21.7552 21.9024 22.1273 21.7008 22.5331 21.6155L23.7665 21.356L22.5331 21.0966C22.1273 21.0112 21.7552 20.8097 21.462 20.5165C21.1689 20.2233 20.9673 19.8512 20.882 19.4455Z" fill="#212121"/>
<path d="M15.7245 22.3838C12.0124 22.3838 8.23358 18.9011 8.23358 15.3639C8.23358 14.7753 8.23358 14.1734 8.23358 13.5966C8.23358 11.6575 9.80548 10.086 11.7445 10.086H15.7245M15.7245 10.086H19.7045C21.6436 10.086 23.2155 11.6575 23.2155 13.5966C23.2155 14.1734 23.2155 14.7753 23.2155 15.3639C23.2155 16.0414 23.0973 16.6987 22.8823 17.3219M15.7245 10.086V8.5" stroke="#212121" stroke-width="1.25" stroke-linecap="round"/>
<circle cx="12.8003" cy="15.4425" r="1.17031" fill="#212121"/>
<ellipse cx="18.6488" cy="15.4425" rx="1.17031" ry="1.17031" fill="#212121"/>
</svg>
