<svg width="20" height="21" viewBox="0 0 20 21" fill="none" xmlns="http://www.w3.org/2000/svg">
<path d="M10.1833 2.1665H9.81667C9.37464 2.1665 8.95072 2.3421 8.63816 2.65466C8.3256 2.96722 8.15 3.39114 8.15 3.83317V3.98317C8.1497 4.27544 8.07255 4.5625 7.92628 4.81553C7.78002 5.06857 7.56978 5.2787 7.31667 5.42484L6.95834 5.63317C6.70497 5.77945 6.41756 5.85646 6.125 5.85646C5.83244 5.85646 5.54503 5.77945 5.29167 5.63317L5.16667 5.5665C4.78422 5.34589 4.32987 5.28604 3.90334 5.40009C3.47681 5.51415 3.11296 5.79278 2.89167 6.17484L2.70833 6.4915C2.48772 6.87395 2.42787 7.32831 2.54192 7.75484C2.65598 8.18137 2.93461 8.54521 3.31667 8.7665L3.44167 8.84984C3.69356 8.99526 3.90302 9.20408 4.04921 9.45553C4.1954 9.70698 4.27325 9.99231 4.275 10.2832V10.7082C4.27617 11.0019 4.19971 11.2906 4.05337 11.5453C3.90703 11.7999 3.69601 12.0113 3.44167 12.1582L3.31667 12.2332C2.93461 12.4545 2.65598 12.8183 2.54192 13.2448C2.42787 13.6714 2.48772 14.1257 2.70833 14.5082L2.89167 14.8248C3.11296 15.2069 3.47681 15.4855 3.90334 15.5996C4.32987 15.7136 4.78422 15.6538 5.16667 15.4332L5.29167 15.3665C5.54503 15.2202 5.83244 15.1432 6.125 15.1432C6.41756 15.1432 6.70497 15.2202 6.95834 15.3665L7.31667 15.5748C7.56978 15.721 7.78002 15.9311 7.92628 16.1841C8.07255 16.4372 8.1497 16.7242 8.15 17.0165V17.1665C8.15 17.6085 8.3256 18.0325 8.63816 18.345C8.95072 18.6576 9.37464 18.8332 9.81667 18.8332H10.1833C10.6254 18.8332 11.0493 18.6576 11.3618 18.345C11.6744 18.0325 11.85 17.6085 11.85 17.1665V17.0165C11.8503 16.7242 11.9275 16.4372 12.0737 16.1841C12.22 15.9311 12.4302 15.721 12.6833 15.5748L13.0417 15.3665C13.295 15.2202 13.5824 15.1432 13.875 15.1432C14.1676 15.1432 14.455 15.2202 14.7083 15.3665L14.8333 15.4332C15.2158 15.6538 15.6701 15.7136 16.0967 15.5996C16.5232 15.4855 16.887 15.2069 17.1083 14.8248L17.2917 14.4998C17.5123 14.1174 17.5721 13.663 17.4581 13.2365C17.344 12.81 17.0654 12.4461 16.6833 12.2248L16.5583 12.1582C16.304 12.0113 16.093 11.7999 15.9466 11.5453C15.8003 11.2906 15.7238 11.0019 15.725 10.7082V10.2915C15.7238 9.99782 15.8003 9.70904 15.9466 9.45441C16.093 9.19978 16.304 8.98834 16.5583 8.8415L16.6833 8.7665C17.0654 8.54521 17.344 8.18137 17.4581 7.75484C17.5721 7.32831 17.5123 6.87395 17.2917 6.4915L17.1083 6.17484C16.887 5.79278 16.5232 5.51415 16.0967 5.40009C15.6701 5.28604 15.2158 5.34589 14.8333 5.5665L14.7083 5.63317C14.455 5.77945 14.1676 5.85646 13.875 5.85646C13.5824 5.85646 13.295 5.77945 13.0417 5.63317L12.6833 5.42484C12.4302 5.2787 12.22 5.06857 12.0737 4.81553C11.9275 4.5625 11.8503 4.27544 11.85 3.98317V3.83317C11.85 3.39114 11.6744 2.96722 11.3618 2.65466C11.0493 2.3421 10.6254 2.1665 10.1833 2.1665Z" stroke="#979797" stroke-width="1.25" stroke-linecap="round" stroke-linejoin="round"/>
<path d="M10 13C11.3807 13 12.5 11.8807 12.5 10.5C12.5 9.11929 11.3807 8 10 8C8.61929 8 7.5 9.11929 7.5 10.5C7.5 11.8807 8.61929 13 10 13Z" stroke="#979797" stroke-width="1.25" stroke-linecap="round" stroke-linejoin="round"/>
</svg>
