<svg width="32" height="33" viewBox="0 0 32 33" fill="none" xmlns="http://www.w3.org/2000/svg">
<path d="M16 17.3333C16.4602 17.3333 16.8333 16.9602 16.8333 16.5C16.8333 16.0397 16.4602 15.6666 16 15.6666C15.5398 15.6666 15.1667 16.0397 15.1667 16.5C15.1667 16.9602 15.5398 17.3333 16 17.3333Z" stroke="#979797" stroke-width="1.5" stroke-linecap="round" stroke-linejoin="round"/>
<path d="M21.8333 17.3333C22.2936 17.3333 22.6667 16.9602 22.6667 16.5C22.6667 16.0397 22.2936 15.6666 21.8333 15.6666C21.3731 15.6666 21 16.0397 21 16.5C21 16.9602 21.3731 17.3333 21.8333 17.3333Z" stroke="#979797" stroke-width="1.5" stroke-linecap="round" stroke-linejoin="round"/>
<path d="M10.1667 17.3333C10.6269 17.3333 11 16.9602 11 16.5C11 16.0397 10.6269 15.6666 10.1667 15.6666C9.70644 15.6666 9.33334 16.0397 9.33334 16.5C9.33334 16.9602 9.70644 17.3333 10.1667 17.3333Z" stroke="#979797" stroke-width="1.5" stroke-linecap="round" stroke-linejoin="round"/>
</svg>
