<svg width="20" height="21" viewBox="0 0 20 21" fill="none" xmlns="http://www.w3.org/2000/svg">
<path d="M18.3333 18V16.3333C18.3333 14.7801 17.271 13.4751 15.8333 13.105M12.9166 3.2423C14.1382 3.73679 15 4.93443 15 6.33333C15 7.73224 14.1382 8.92988 12.9166 9.42437M14.1666 18C14.1666 16.4469 14.1666 15.6703 13.9129 15.0577C13.5746 14.241 12.9257 13.592 12.1089 13.2537C11.4963 13 10.7198 13 9.16663 13H6.66663C5.11349 13 4.33692 13 3.72435 13.2537C2.90759 13.592 2.25867 14.241 1.92036 15.0577C1.66663 15.6703 1.66663 16.4469 1.66663 18M11.25 6.33333C11.25 8.17428 9.75758 9.66667 7.91663 9.66667C6.07568 9.66667 4.58329 8.17428 4.58329 6.33333C4.58329 4.49238 6.07568 3 7.91663 3C9.75758 3 11.25 4.49238 11.25 6.33333Z" stroke="#979797" stroke-width="1.2" stroke-linecap="round" stroke-linejoin="round"/>
</svg>
