<svg width="116" height="33" viewBox="0 0 116 33" fill="none" xmlns="http://www.w3.org/2000/svg">
<rect x="0.5" y="1" width="115" height="31" rx="7.5" stroke="#EBEBEB"/>
<path d="M19.6 10.5H17.0667C16.6933 10.5 16.5066 10.5 16.364 10.5727C16.2386 10.6366 16.1366 10.7386 16.0727 10.864C16 11.0066 16 11.1933 16 11.5667V12.7667C16 13.14 16 13.3267 16.0727 13.4693C16.1366 13.5948 16.2386 13.6968 16.364 13.7607C16.5066 13.8333 16.6933 13.8333 17.0667 13.8333H19.6C19.9734 13.8333 20.1601 13.8333 20.3027 13.7607C20.4281 13.6968 20.5301 13.5948 20.594 13.4693C20.6667 13.3267 20.6667 13.14 20.6667 12.7667V11.5667C20.6667 11.1933 20.6667 11.0066 20.594 10.864C20.5301 10.7386 20.4281 10.6366 20.3027 10.5727C20.1601 10.5 19.9734 10.5 19.6 10.5Z" stroke="#212121" stroke-width="1.2" stroke-linecap="round" stroke-linejoin="round"/>
<path d="M26.9333 10.5H24.4C24.0266 10.5 23.8399 10.5 23.6973 10.5727C23.5719 10.6366 23.4699 10.7386 23.406 10.864C23.3333 11.0066 23.3333 11.1933 23.3333 11.5667V15.4333C23.3333 15.8067 23.3333 15.9934 23.406 16.136C23.4699 16.2614 23.5719 16.3634 23.6973 16.4273C23.8399 16.5 24.0266 16.5 24.4 16.5H26.9333C27.3067 16.5 27.4934 16.5 27.636 16.4273C27.7614 16.3634 27.8634 16.2614 27.9273 16.136C28 15.9934 28 15.8067 28 15.4333V11.5667C28 11.1933 28 11.0066 27.9273 10.864C27.8634 10.7386 27.7614 10.6366 27.636 10.5727C27.4934 10.5 27.3067 10.5 26.9333 10.5Z" stroke="#212121" stroke-width="1.2" stroke-linecap="round" stroke-linejoin="round"/>
<path d="M26.9333 19.1667H24.4C24.0266 19.1667 23.8399 19.1667 23.6973 19.2393C23.5719 19.3032 23.4699 19.4052 23.406 19.5307C23.3333 19.6733 23.3333 19.86 23.3333 20.2333V21.4333C23.3333 21.8067 23.3333 21.9934 23.406 22.136C23.4699 22.2614 23.5719 22.3634 23.6973 22.4273C23.8399 22.5 24.0266 22.5 24.4 22.5H26.9333C27.3067 22.5 27.4934 22.5 27.636 22.4273C27.7614 22.3634 27.8634 22.2614 27.9273 22.136C28 21.9934 28 21.8067 28 21.4333V20.2333C28 19.86 28 19.6733 27.9273 19.5307C27.8634 19.4052 27.7614 19.3032 27.636 19.2393C27.4934 19.1667 27.3067 19.1667 26.9333 19.1667Z" stroke="#212121" stroke-width="1.2" stroke-linecap="round" stroke-linejoin="round"/>
<path d="M19.6 16.5H17.0667C16.6933 16.5 16.5066 16.5 16.364 16.5727C16.2386 16.6366 16.1366 16.7386 16.0727 16.864C16 17.0066 16 17.1933 16 17.5667V21.4333C16 21.8067 16 21.9934 16.0727 22.136C16.1366 22.2614 16.2386 22.3634 16.364 22.4273C16.5066 22.5 16.6933 22.5 17.0667 22.5H19.6C19.9734 22.5 20.1601 22.5 20.3027 22.4273C20.4281 22.3634 20.5301 22.2614 20.594 22.136C20.6667 21.9934 20.6667 21.8067 20.6667 21.4333V17.5667C20.6667 17.1933 20.6667 17.0066 20.594 16.864C20.5301 16.7386 20.4281 16.6366 20.3027 16.5727C20.1601 16.5 19.9734 16.5 19.6 16.5Z" stroke="#212121" stroke-width="1.2" stroke-linecap="round" stroke-linejoin="round"/>
<path d="M35.696 20.5H34.2983L37.4389 11.7727H38.9602L42.1009 20.5H40.7031L38.2358 13.358H38.1676L35.696 20.5ZM35.9304 17.0824H40.4645V18.1903H35.9304V17.0824ZM45.6037 20.6278C45.0753 20.6278 44.6037 20.4929 44.1889 20.223C43.777 19.9503 43.4531 19.5625 43.2173 19.0597C42.9844 18.554 42.8679 17.9474 42.8679 17.2401C42.8679 16.5327 42.9858 15.9276 43.2216 15.4247C43.4602 14.9219 43.7869 14.5369 44.2017 14.2699C44.6165 14.0028 45.0866 13.8693 45.6122 13.8693C46.0185 13.8693 46.3452 13.9375 46.5923 14.0739C46.8423 14.2074 47.0355 14.3636 47.1719 14.5426C47.3111 14.7216 47.419 14.8793 47.4957 15.0156H47.5724V11.7727H48.8466V20.5H47.6023V19.4815H47.4957C47.419 19.6207 47.3082 19.7798 47.1634 19.9588C47.0213 20.1378 46.8253 20.294 46.5753 20.4276C46.3253 20.5611 46.0014 20.6278 45.6037 20.6278ZM45.8849 19.5412C46.2514 19.5412 46.5611 19.4446 46.8139 19.2514C47.0696 19.0554 47.2628 18.7841 47.3935 18.4375C47.527 18.0909 47.5938 17.6875 47.5938 17.2273C47.5938 16.7727 47.5284 16.375 47.3977 16.0341C47.267 15.6932 47.0753 15.4276 46.8224 15.2372C46.5696 15.0469 46.2571 14.9517 45.8849 14.9517C45.5014 14.9517 45.1818 15.0511 44.9261 15.25C44.6705 15.4489 44.4773 15.7202 44.3466 16.0639C44.2188 16.4077 44.1548 16.7955 44.1548 17.2273C44.1548 17.6648 44.2202 18.0582 44.3509 18.4077C44.4815 18.7571 44.6747 19.0341 44.9304 19.2386C45.1889 19.4403 45.5071 19.5412 45.8849 19.5412ZM53.1154 20.6278C52.587 20.6278 52.1154 20.4929 51.7006 20.223C51.2887 19.9503 50.9648 19.5625 50.729 19.0597C50.4961 18.554 50.3796 17.9474 50.3796 17.2401C50.3796 16.5327 50.4975 15.9276 50.7333 15.4247C50.9719 14.9219 51.2987 14.5369 51.7134 14.2699C52.1282 14.0028 52.5984 13.8693 53.1239 13.8693C53.5302 13.8693 53.8569 13.9375 54.104 14.0739C54.354 14.2074 54.5472 14.3636 54.6836 14.5426C54.8228 14.7216 54.9308 14.8793 55.0075 15.0156H55.0842V11.7727H56.3583V20.5H55.114V19.4815H55.0075C54.9308 19.6207 54.82 19.7798 54.6751 19.9588C54.533 20.1378 54.337 20.294 54.087 20.4276C53.837 20.5611 53.5131 20.6278 53.1154 20.6278ZM53.3967 19.5412C53.7631 19.5412 54.0728 19.4446 54.3256 19.2514C54.5813 19.0554 54.7745 18.7841 54.9052 18.4375C55.0387 18.0909 55.1055 17.6875 55.1055 17.2273C55.1055 16.7727 55.0401 16.375 54.9094 16.0341C54.7788 15.6932 54.587 15.4276 54.3342 15.2372C54.0813 15.0469 53.7688 14.9517 53.3967 14.9517C53.0131 14.9517 52.6935 15.0511 52.4379 15.25C52.1822 15.4489 51.989 15.7202 51.8583 16.0639C51.7305 16.4077 51.6665 16.7955 51.6665 17.2273C51.6665 17.6648 51.7319 18.0582 51.8626 18.4077C51.9933 18.7571 52.1864 19.0341 52.4421 19.2386C52.7006 19.4403 53.0188 19.5412 53.3967 19.5412ZM63.1637 20.5L60.7433 11.7727H62.1282L63.8285 18.5312H63.9094L65.6779 11.7727H67.0501L68.8185 18.5355H68.8995L70.5955 11.7727H71.9847L69.56 20.5H68.2347L66.3981 13.9631H66.3299L64.4933 20.5H63.1637ZM73.0831 20.5V13.9545H74.3572V20.5H73.0831ZM73.7266 12.9446C73.505 12.9446 73.3146 12.8707 73.1555 12.723C72.9993 12.5724 72.9212 12.3935 72.9212 12.1861C72.9212 11.9759 72.9993 11.7969 73.1555 11.6491C73.3146 11.4986 73.505 11.4233 73.7266 11.4233C73.9482 11.4233 74.1371 11.4986 74.2933 11.6491C74.4524 11.7969 74.532 11.9759 74.532 12.1861C74.532 12.3935 74.4524 12.5724 74.2933 12.723C74.1371 12.8707 73.9482 12.9446 73.7266 12.9446ZM78.5217 20.6278C77.9933 20.6278 77.5217 20.4929 77.1069 20.223C76.695 19.9503 76.3711 19.5625 76.1353 19.0597C75.9023 18.554 75.7859 17.9474 75.7859 17.2401C75.7859 16.5327 75.9038 15.9276 76.1396 15.4247C76.3782 14.9219 76.7049 14.5369 77.1197 14.2699C77.5344 14.0028 78.0046 13.8693 78.5302 13.8693C78.9364 13.8693 79.2631 13.9375 79.5103 14.0739C79.7603 14.2074 79.9535 14.3636 80.0898 14.5426C80.229 14.7216 80.337 14.8793 80.4137 15.0156H80.4904V11.7727H81.7646V20.5H80.5202V19.4815H80.4137C80.337 19.6207 80.2262 19.7798 80.0813 19.9588C79.9393 20.1378 79.7433 20.294 79.4933 20.4276C79.2433 20.5611 78.9194 20.6278 78.5217 20.6278ZM78.8029 19.5412C79.1694 19.5412 79.479 19.4446 79.7319 19.2514C79.9876 19.0554 80.1808 18.7841 80.3114 18.4375C80.445 18.0909 80.5117 17.6875 80.5117 17.2273C80.5117 16.7727 80.4464 16.375 80.3157 16.0341C80.185 15.6932 79.9933 15.4276 79.7404 15.2372C79.4876 15.0469 79.1751 14.9517 78.8029 14.9517C78.4194 14.9517 78.0998 15.0511 77.8441 15.25C77.5884 15.4489 77.3952 15.7202 77.2646 16.0639C77.1367 16.4077 77.0728 16.7955 77.0728 17.2273C77.0728 17.6648 77.1381 18.0582 77.2688 18.4077C77.3995 18.7571 77.5927 19.0341 77.8484 19.2386C78.1069 19.4403 78.4251 19.5412 78.8029 19.5412ZM86.3274 23.0909C85.8075 23.0909 85.3601 23.0227 84.9851 22.8864C84.6129 22.75 84.3089 22.5696 84.0732 22.3452C83.8374 22.1207 83.6612 21.875 83.5447 21.608L84.6399 21.1562C84.7166 21.2812 84.8189 21.4134 84.9467 21.5526C85.0774 21.6946 85.2536 21.8153 85.4751 21.9148C85.6996 22.0142 85.9879 22.0639 86.3402 22.0639C86.8232 22.0639 87.2223 21.946 87.5376 21.7102C87.853 21.4773 88.0107 21.1051 88.0107 20.5938V19.3068H87.9297C87.853 19.446 87.7422 19.6009 87.5973 19.7713C87.4553 19.9418 87.2592 20.0895 87.0092 20.2145C86.7592 20.3395 86.4339 20.402 86.0334 20.402C85.5163 20.402 85.0504 20.2812 84.6357 20.0398C84.2237 19.7955 83.897 19.4361 83.6555 18.9616C83.4169 18.4844 83.2976 17.8977 83.2976 17.2017C83.2976 16.5057 83.4155 15.9091 83.6513 15.4119C83.8899 14.9148 84.2166 14.5341 84.6314 14.2699C85.0462 14.0028 85.5163 13.8693 86.0419 13.8693C86.4482 13.8693 86.7763 13.9375 87.0263 14.0739C87.2763 14.2074 87.4709 14.3636 87.6101 14.5426C87.7521 14.7216 87.8615 14.8793 87.9382 15.0156H88.032V13.9545H89.2805V20.6449C89.2805 21.2074 89.1499 21.669 88.8885 22.0298C88.6271 22.3906 88.2734 22.6577 87.8274 22.831C87.3842 23.0043 86.8842 23.0909 86.3274 23.0909ZM86.3146 19.3452C86.6811 19.3452 86.9908 19.2599 87.2436 19.0895C87.4993 18.9162 87.6925 18.669 87.8232 18.348C87.9567 18.0241 88.0234 17.6364 88.0234 17.1847C88.0234 16.7443 87.9581 16.3565 87.8274 16.0213C87.6967 15.6861 87.505 15.4247 87.2521 15.2372C86.9993 15.0469 86.6868 14.9517 86.3146 14.9517C85.9311 14.9517 85.6115 15.0511 85.3558 15.25C85.1001 15.446 84.907 15.7131 84.7763 16.0511C84.6484 16.3892 84.5845 16.767 84.5845 17.1847C84.5845 17.6136 84.6499 17.9901 84.7805 18.3139C84.9112 18.6378 85.1044 18.8906 85.3601 19.0724C85.6186 19.2543 85.9368 19.3452 86.3146 19.3452ZM93.8104 20.6321C93.1655 20.6321 92.6101 20.4943 92.1442 20.2188C91.6811 19.9403 91.3232 19.5497 91.0703 19.0469C90.8203 18.5412 90.6953 17.9489 90.6953 17.2699C90.6953 16.5994 90.8203 16.0085 91.0703 15.4972C91.3232 14.9858 91.6754 14.5866 92.1271 14.2997C92.5817 14.0128 93.1129 13.8693 93.7209 13.8693C94.0902 13.8693 94.4482 13.9304 94.7947 14.0526C95.1413 14.1747 95.4524 14.3665 95.728 14.6278C96.0036 14.8892 96.2209 15.2287 96.38 15.6463C96.5391 16.0611 96.6186 16.5653 96.6186 17.1591V17.6108H91.4155V16.6562H95.37C95.37 16.321 95.3018 16.0241 95.1655 15.7656C95.0291 15.5043 94.8374 15.2983 94.5902 15.1477C94.3459 14.9972 94.0589 14.9219 93.7294 14.9219C93.3714 14.9219 93.0589 15.0099 92.7919 15.1861C92.5277 15.3594 92.3232 15.5866 92.1783 15.8679C92.0362 16.1463 91.9652 16.4489 91.9652 16.7756V17.5213C91.9652 17.9588 92.0419 18.331 92.1953 18.6378C92.3516 18.9446 92.5689 19.179 92.8473 19.3409C93.1257 19.5 93.451 19.5795 93.8232 19.5795C94.0646 19.5795 94.2848 19.5455 94.4837 19.4773C94.6825 19.4062 94.8544 19.3011 94.9993 19.1619C95.1442 19.0227 95.255 18.8509 95.3317 18.6463L96.5376 18.8636C96.4411 19.2187 96.2678 19.5298 96.0178 19.7969C95.7706 20.0611 95.4595 20.267 95.0845 20.4148C94.7124 20.5597 94.2876 20.6321 93.8104 20.6321ZM101.088 13.9545V14.9773H97.5124V13.9545H101.088ZM98.4712 12.3864H99.7454V18.5781C99.7454 18.8253 99.7823 19.0114 99.8562 19.1364C99.93 19.2585 100.025 19.3423 100.142 19.3878C100.261 19.4304 100.39 19.4517 100.529 19.4517C100.632 19.4517 100.721 19.4446 100.798 19.4304C100.875 19.4162 100.934 19.4048 100.977 19.3963L101.207 20.4489C101.133 20.4773 101.028 20.5057 100.892 20.5341C100.755 20.5653 100.585 20.5824 100.38 20.5852C100.045 20.5909 99.7326 20.5312 99.4428 20.4062C99.1531 20.2812 98.9187 20.0881 98.7397 19.8267C98.5607 19.5653 98.4712 19.2372 98.4712 18.8423V12.3864Z" fill="#212121"/>
</svg>
